<svg width="2193" height="754" viewBox="0 0 2193 754" fill="none" xmlns="http://www.w3.org/2000/svg">
<rect width="2193" height="754" fill="black"/>
<path d="M241.23 184.388L296.055 259.102V520.946H241.23L241.23 184.388Z" fill="white"/>
<rect x="413.929" y="466.109" width="54.8364" height="172.699" transform="rotate(90 413.929 466.109)" fill="white"/>
<rect x="1415.86" y="520.946" width="54.8249" height="261.844" transform="rotate(-180 1415.86 520.946)" fill="white"/>
<rect x="1243.16" y="520.946" width="54.8363" height="172.699" transform="rotate(-90 1243.16 520.946)" fill="white"/>
<rect x="642.823" y="466.109" width="54.8364" height="216.559" transform="rotate(90 642.823 466.109)" fill="white"/>
<rect x="642.823" y="259.103" width="54.8364" height="216.559" transform="rotate(90 642.823 259.103)" fill="white"/>
<rect x="579.774" y="363.291" width="54.8364" height="153.51" transform="rotate(90 579.774 363.291)" fill="white"/>
<rect x="1014.26" y="313.938" width="54.8364" height="216.559" transform="rotate(-90 1014.26 313.938)" fill="white"/>
<rect x="1014.26" y="520.946" width="54.8364" height="216.559" transform="rotate(-90 1014.26 520.946)" fill="white"/>
<rect x="1077.31" y="416.757" width="54.8364" height="153.51" transform="rotate(-90 1077.31 416.757)" fill="white"/>
<path fill-rule="evenodd" clip-rule="evenodd" d="M827.981 484.864L723.544 259.103H932.418L827.981 484.864ZM993.703 337.628C993.703 441.09 932.629 526.748 853.022 541.51L982.269 262.116C989.649 285.5 993.703 310.973 993.703 337.628ZM663.382 337.628C663.382 440.555 723.827 525.863 802.831 541.275L674.364 263.566C667.271 286.552 663.382 311.523 663.382 337.628Z" fill="#FF0000"/>
<rect x="1444.64" y="209.75" width="507.131" height="360.549" fill="#08549B"/>
<mask id="path-14-outside-1_11_254" maskUnits="userSpaceOnUse" x="1498.46" y="258.103" width="212" height="264" fill="black">
<rect fill="white" x="1498.46" y="258.103" width="212" height="264"/>
<path fill-rule="evenodd" clip-rule="evenodd" d="M1554.29 269.103C1554.29 263.58 1549.81 259.103 1544.29 259.103H1509.46C1503.94 259.103 1499.46 263.58 1499.46 269.103V510.946C1499.46 516.469 1503.94 520.946 1509.46 520.946H1699.17C1704.69 520.946 1709.17 516.469 1709.17 510.946V269.103C1709.17 263.58 1704.69 259.103 1699.17 259.103H1664.34C1658.82 259.103 1654.34 263.58 1654.34 269.103V456.11C1654.34 461.633 1649.87 466.11 1644.34 466.11H1564.29C1558.77 466.11 1554.29 461.633 1554.29 456.11V269.103Z"/>
</mask>
<path fill-rule="evenodd" clip-rule="evenodd" d="M1554.29 269.103C1554.29 263.58 1549.81 259.103 1544.29 259.103H1509.46C1503.94 259.103 1499.46 263.58 1499.46 269.103V510.946C1499.46 516.469 1503.94 520.946 1509.46 520.946H1699.17C1704.69 520.946 1709.17 516.469 1709.17 510.946V269.103C1709.17 263.58 1704.69 259.103 1699.17 259.103H1664.34C1658.82 259.103 1654.34 263.58 1654.34 269.103V456.11C1654.34 461.633 1649.87 466.11 1644.34 466.11H1564.29C1558.77 466.11 1554.29 461.633 1554.29 456.11V269.103Z" fill="#D9D9D9"/>
<path d="M1509.46 260.103H1544.29V258.103H1509.46V260.103ZM1500.46 510.946V269.103H1498.46V510.946H1500.46ZM1699.17 519.946H1509.46V521.946H1699.17V519.946ZM1708.17 269.103V510.946H1710.17V269.103H1708.17ZM1664.34 260.103H1699.17V258.103H1664.34V260.103ZM1653.34 269.103V456.11H1655.34V269.103H1653.34ZM1644.34 465.11H1564.29V467.11H1644.34V465.11ZM1555.29 456.11V269.103H1553.29V456.11H1555.29ZM1564.29 465.11C1559.32 465.11 1555.29 461.08 1555.29 456.11H1553.29C1553.29 462.185 1558.21 467.11 1564.29 467.11V465.11ZM1653.34 456.11C1653.34 461.08 1649.32 465.11 1644.34 465.11V467.11C1650.42 467.11 1655.34 462.185 1655.34 456.11H1653.34ZM1664.34 258.103C1658.27 258.103 1653.34 263.027 1653.34 269.103H1655.34C1655.34 264.132 1659.37 260.103 1664.34 260.103V258.103ZM1710.17 269.103C1710.17 263.027 1705.24 258.103 1699.17 258.103V260.103C1704.14 260.103 1708.17 264.132 1708.17 269.103H1710.17ZM1699.17 521.946C1705.24 521.946 1710.17 517.021 1710.17 510.946H1708.17C1708.17 515.917 1704.14 519.946 1699.17 519.946V521.946ZM1498.46 510.946C1498.46 517.021 1503.39 521.946 1509.46 521.946V519.946C1504.49 519.946 1500.46 515.917 1500.46 510.946H1498.46ZM1544.29 260.103C1549.26 260.103 1553.29 264.132 1553.29 269.103H1555.29C1555.29 263.027 1550.36 258.103 1544.29 258.103V260.103ZM1509.46 258.103C1503.39 258.103 1498.46 263.027 1498.46 269.103H1500.46C1500.46 264.132 1504.49 260.103 1509.46 260.103V258.103Z" fill="black" mask="url(#path-14-outside-1_11_254)"/>
<mask id="path-16-inside-2_11_254" fill="white">
<path fill-rule="evenodd" clip-rule="evenodd" d="M1857.39 259.103H1753.18C1749.31 259.103 1746.18 262.237 1746.18 266.103V291.478C1746.18 295.344 1749.31 298.478 1753.18 298.478H1850.39C1854.25 298.478 1857.39 301.612 1857.39 305.478V363.337C1857.39 367.203 1854.25 370.337 1850.39 370.337L1785.54 370.337L1753.18 370.337C1749.31 370.337 1746.18 373.471 1746.18 377.337V409.712L1746.18 513.946C1746.18 517.812 1749.31 520.946 1753.18 520.946H1778.54C1782.41 520.946 1785.54 517.812 1785.54 513.946L1785.54 416.712C1785.54 412.846 1788.68 409.712 1792.54 409.712L1857.39 409.712L1889.75 409.712C1893.62 409.712 1896.75 406.578 1896.75 402.712V370.337V298.478V266.103C1896.75 262.237 1893.62 259.103 1889.75 259.103H1857.39Z"/>
</mask>
<path fill-rule="evenodd" clip-rule="evenodd" d="M1857.39 259.103H1753.18C1749.31 259.103 1746.18 262.237 1746.18 266.103V291.478C1746.18 295.344 1749.31 298.478 1753.18 298.478H1850.39C1854.25 298.478 1857.39 301.612 1857.39 305.478V363.337C1857.39 367.203 1854.25 370.337 1850.39 370.337L1785.54 370.337L1753.18 370.337C1749.31 370.337 1746.18 373.471 1746.18 377.337V409.712L1746.18 513.946C1746.18 517.812 1749.31 520.946 1753.18 520.946H1778.54C1782.41 520.946 1785.54 517.812 1785.54 513.946L1785.54 416.712C1785.54 412.846 1788.68 409.712 1792.54 409.712L1857.39 409.712L1889.75 409.712C1893.62 409.712 1896.75 406.578 1896.75 402.712V370.337V298.478V266.103C1896.75 262.237 1893.62 259.103 1889.75 259.103H1857.39Z" fill="#D9D9D9"/>
<path d="M1785.54 370.337V369.337V370.337ZM1746.18 409.712H1745.18H1746.18ZM1857.39 409.712V410.712V409.712ZM1889.75 409.712V408.712V409.712ZM1785.54 416.712H1784.54H1785.54ZM1792.54 409.712V408.712V409.712ZM1785.54 513.946H1786.54H1785.54ZM1850.39 370.337V371.337V370.337ZM1753.18 260.103H1857.39V258.103H1753.18V260.103ZM1747.18 291.478V266.103H1745.18V291.478H1747.18ZM1850.39 297.478H1753.18V299.478H1850.39V297.478ZM1858.39 363.337V305.478H1856.39V363.337H1858.39ZM1785.54 371.337L1850.39 371.337V369.337L1785.54 369.337V371.337ZM1753.18 371.337L1785.54 371.337V369.337L1753.18 369.337L1753.18 371.337ZM1747.18 409.712V377.337H1745.18V409.712H1747.18ZM1747.18 513.946L1747.18 409.712H1745.18L1745.18 513.946H1747.18ZM1778.54 519.946H1753.18V521.946H1778.54V519.946ZM1784.54 416.712L1784.54 513.946H1786.54L1786.54 416.712H1784.54ZM1857.39 408.712L1792.54 408.712V410.712L1857.39 410.712V408.712ZM1889.75 408.712L1857.39 408.712V410.712L1889.75 410.712V408.712ZM1895.75 370.337V402.712H1897.75V370.337H1895.75ZM1895.75 298.478V370.337H1897.75V298.478H1895.75ZM1895.75 266.103V298.478H1897.75V266.103H1895.75ZM1857.39 260.103H1889.75V258.103H1857.39V260.103ZM1889.75 410.712C1894.17 410.712 1897.75 407.13 1897.75 402.712H1895.75C1895.75 406.026 1893.07 408.712 1889.75 408.712V410.712ZM1786.54 416.712C1786.54 413.398 1789.23 410.712 1792.54 410.712V408.712C1788.13 408.712 1784.54 412.294 1784.54 416.712H1786.54ZM1778.54 521.946C1782.96 521.946 1786.54 518.364 1786.54 513.946H1784.54C1784.54 517.26 1781.86 519.946 1778.54 519.946V521.946ZM1745.18 513.946C1745.18 518.364 1748.76 521.946 1753.18 521.946V519.946C1749.86 519.946 1747.18 517.26 1747.18 513.946H1745.18ZM1753.18 369.337C1748.76 369.337 1745.18 372.919 1745.18 377.337H1747.18C1747.18 374.023 1749.86 371.337 1753.18 371.337L1753.18 369.337ZM1897.75 266.103C1897.75 261.684 1894.17 258.103 1889.75 258.103V260.103C1893.07 260.103 1895.75 262.789 1895.75 266.103H1897.75ZM1856.39 363.337C1856.39 366.651 1853.7 369.337 1850.39 369.337V371.337C1854.81 371.337 1858.39 367.755 1858.39 363.337H1856.39ZM1850.39 299.478C1853.7 299.478 1856.39 302.164 1856.39 305.478H1858.39C1858.39 301.059 1854.81 297.478 1850.39 297.478V299.478ZM1745.18 291.478C1745.18 295.896 1748.76 299.478 1753.18 299.478V297.478C1749.86 297.478 1747.18 294.791 1747.18 291.478H1745.18ZM1753.18 258.103C1748.76 258.103 1745.18 261.684 1745.18 266.103H1747.18C1747.18 262.789 1749.86 260.103 1753.18 260.103V258.103Z" fill="black" mask="url(#path-16-inside-2_11_254)"/>
</svg>
